<svg xmlns="http://www.w3.org/2000/svg" viewBox="0 0 26 52" width="26" height="52">
	<style>
		tspan { white-space:pre }
		.shp0 { fill: #ffffff } 
	</style>
	<g id="our team">
		<g id="1">
			<g id="share">
				<path id="facebook" class="shp0" d="M24.18 0.4C24.18 3.36 24.18 8.64 24.18 8.64C24.18 8.64 18.1 8.04 16.58 10.36C15.76 11.64 16.24 15.36 16.18 18.04C18.82 18.04 21.58 18.04 24.22 18.04C23.54 21.16 23.06 23.28 22.56 26C20.26 26 16.12 26 16.12 26L16.12 51.6C16.12 51.6 8.54 51.6 4.96 51.6C4.96 43.7 4.96 34.5 4.96 26.1C3.22 26.1 1.94 26.1 0.22 26.1C0.22 23.14 0.22 21 0.22 18.04C1.9 18.04 3.22 18.04 4.9 18.04C5.16 12.14 5.24 6.3 8.16 3.34C11.46 0 14.6 0.4 24.18 0.4Z" />
			</g>
		</g>
	</g>
</svg>