<svg xmlns="http://www.w3.org/2000/svg" viewBox="0 0 52 52" width="52" height="52">
	<style>
		tspan { white-space:pre }
		.shp0 { fill: #f38181 } 
	</style>
	<g id="our team">
		<g id="1">
			<g id="share">
				<path id="instagram" fill-rule="evenodd" class="shp0" d="M45.4 51.6L7 51.6C3.46 51.6 0.6 48.74 0.6 45.2L0.6 6.8C0.6 3.26 3.46 0.4 7 0.4L45.4 0.4C48.94 0.4 51.8 3.26 51.8 6.8L51.8 45.2C51.8 48.74 48.94 51.6 45.4 51.6ZM26.2 16.08C22.2 16.08 18.78 18.44 17.2 21.84C17.18 21.88 17.16 21.92 17.16 21.94C17.06 22.16 16.98 22.38 16.9 22.6C16.86 22.7 16.82 22.8 16.78 22.9C16.7 23.12 16.64 23.36 16.58 23.58C16.56 23.68 16.52 23.8 16.5 23.9C16.46 24.14 16.42 24.38 16.38 24.64C16.38 24.74 16.34 24.84 16.34 24.94C16.3 25.28 16.28 25.64 16.28 26C16.28 31.48 20.72 35.92 26.2 35.92C31.68 35.92 36.12 31.48 36.12 26C36.12 25.64 36.1 25.28 36.06 24.94C36.06 24.84 36.02 24.74 36.02 24.64C35.98 24.38 35.94 24.14 35.9 23.9C35.86 23.8 35.84 23.68 35.82 23.58C35.76 23.36 35.7 23.12 35.62 22.9C35.58 22.8 35.54 22.7 35.5 22.6C35.42 22.38 35.34 22.16 35.24 21.94C35.24 21.92 35.22 21.88 35.2 21.84C33.62 18.44 30.2 16.08 26.2 16.08ZM46.04 8.72C46.04 7.3 44.9 6.16 43.48 6.16L38.36 6.16C36.94 6.16 35.8 7.3 35.8 8.72L35.8 13.84C35.8 15.26 36.94 16.4 38.36 16.4L43.48 16.4C44.9 16.4 46.04 15.26 46.04 13.84L46.04 8.72ZM46.04 21.84L41.32 21.84C41.68 23.16 41.88 24.56 41.88 26C41.88 34.66 34.86 41.68 26.2 41.68C17.54 41.68 10.52 34.66 10.52 26C10.52 24.56 10.72 23.16 11.08 21.84L6.36 21.84L6.36 43.28C6.36 44.7 7.5 45.84 8.92 45.84L43.48 45.84C44.9 45.84 46.04 44.7 46.04 43.28L46.04 21.84Z" />
			</g>
		</g>
	</g>
</svg>