<svg xmlns="http://www.w3.org/2000/svg" viewBox="0 0 42 52" width="42" height="52">
	<style>
		tspan { white-space:pre }
		.shp0 { fill: #f38181 } 
	</style>
	<g id="our team">
		<g id="1">
			<g id="share">
				<path id="pinterest" class="shp0" d="M18.1 33.7C17.68 35.38 17.26 37.12 16.82 38.82C16.4 40.52 16.02 42.22 15.4 43.76C14.36 46.34 13.04 48.8 11.3 50.82C10.16 52.14 10.4 51.62 10.06 51.54C9.78 51.48 9.76 51.22 9.72 50.86C9.44 48.82 9.62 46.46 9.72 44.18C9.84 41.56 10.4 39.4 10.9 37.22C11.88 33.1 12.8 29.06 13.78 24.9C13.84 24.62 14.02 24.16 13.96 24.02C13.52 22.86 13.22 21.82 13.1 20.62C12.96 19.22 13.06 17.92 13.38 16.72C13.92 14.6 15.2 12.74 17.16 12.04C18.42 11.62 19.8 11.82 20.64 12.32C21.5 12.82 22.1 13.64 22.36 14.8C22.66 16.04 22.44 17.5 22.2 18.58C21.68 21.02 20.98 22.86 20.34 25.2C20.02 26.38 19.66 27.58 19.96 28.82C20.22 29.98 20.82 30.78 21.66 31.38C22.5 32 23.5 32.34 24.9 32.3C27.36 32.2 29.06 30.64 30.2 29.16C32.02 26.78 33.14 23.58 33.56 19.78C33.68 18.56 33.78 17.14 33.7 15.76C33.52 13.18 32.72 11.12 31.44 9.52C30.22 8 28.5 6.78 26.42 6.1C24.34 5.42 21.46 5.2 18.92 5.64C14.28 6.42 11.02 9.06 9.1 12.7C8.08 14.6 7.42 16.8 7.42 19.52C7.42 21.62 7.94 23.24 8.78 24.52C9.04 24.92 9.42 25.26 9.68 25.72C10.06 26.36 9.64 27.34 9.44 28.04C9.22 28.9 9.2 30.06 8.22 30.08C7.8 30.1 7.28 29.8 6.94 29.6C4.32 28.16 2.74 25.54 2.1 22.12C1.7 20.06 1.7 17.66 2.1 15.66C2.48 13.72 3.18 11.94 3.96 10.5C5.6 7.48 7.98 5.08 10.88 3.36C13.12 2.04 15.64 1.12 18.7 0.68C19.72 0.52 20.76 0.46 21.9 0.42C25.24 0.26 28.28 1 30.56 2.02C32.98 3.1 34.9 4.54 36.52 6.32C38.2 8.16 39.42 10.28 40.2 12.94C40.6 14.32 40.98 15.8 40.98 17.52C40.98 19.22 40.62 20.74 40.38 22.26C39.42 27.9 36.74 32.54 32.7 35.16C31.72 35.8 30.54 36.4 29.18 36.78C27.86 37.18 26.34 37.46 24.7 37.36C23.12 37.24 21.82 36.82 20.74 36.2C19.66 35.58 18.74 34.84 18.1 33.7Z" />
			</g>
		</g>
	</g>
</svg>