<svg xmlns="http://www.w3.org/2000/svg" viewBox="0 0 52 44" width="52" height="44">
	<style>
		tspan { white-space:pre }
		.shp0 { fill: #f38181 } 
	</style>
	<g id="our team">
		<g id="1">
			<g id="share">
				<path id="twitter" class="shp0" d="M35.02 1.2C39.1 1.12 41.26 2.62 43.32 4.5C45.08 4.34 47.36 3.36 48.7 2.68C49.14 2.44 49.58 2.2 50.02 1.96C49.24 4.04 48.2 5.66 46.6 6.9C46.26 7.18 45.9 7.54 45.46 7.72L45.46 7.74C47.74 7.72 49.62 6.7 51.4 6.14C51.4 6.14 51.4 6.14 51.4 6.16C50.46 7.64 49.2 9.16 47.84 10.24C47.3 10.68 46.74 11.12 46.2 11.54C46.22 13.96 46.16 16.26 45.72 18.3C43.08 30.08 36.14 38.08 25.14 41.52C21.18 42.74 14.8 43.26 10.28 42.14C8.02 41.58 6 40.94 4.1 40.12C3.04 39.66 2.06 39.14 1.12 38.58C0.82 38.4 0.5 38.2 0.2 38.02C1.22 38.04 2.42 38.32 3.56 38.14C4.58 37.98 5.6 38.02 6.56 37.82C8.94 37.3 11.04 36.6 12.86 35.54C13.74 35.02 15.08 34.42 15.7 33.68C14.52 33.7 13.46 33.42 12.58 33.12C9.18 31.92 7.2 29.7 5.92 26.4C6.94 26.5 9.92 26.78 10.6 26.18C9.3 26.12 8.06 25.36 7.18 24.8C4.44 23.1 2.2 20.24 2.22 15.82C2.58 15.98 2.94 16.16 3.3 16.32C3.98 16.62 4.68 16.78 5.5 16.94C5.86 17.02 6.54 17.22 6.94 17.06C6.92 17.06 6.9 17.06 6.88 17.06C6.36 16.46 5.5 16.04 4.96 15.38C3.22 13.2 1.56 9.84 2.6 5.86C2.88 4.84 3.3 3.94 3.74 3.12C3.76 3.12 3.78 3.14 3.78 3.14C4 3.58 4.44 3.88 4.74 4.24C5.64 5.36 6.74 6.36 7.86 7.24C11.7 10.24 15.16 12.08 20.7 13.44C22.1 13.78 23.74 14.06 25.42 14.06C24.94 12.68 25.1 10.46 25.46 9.12C26.4 5.78 28.44 3.36 31.42 2.08C32.12 1.76 32.92 1.54 33.74 1.36C34.18 1.3 34.6 1.26 35.02 1.2Z" />
			</g>
		</g>
	</g>
</svg>