<svg xmlns="http://www.w3.org/2000/svg" width="52" height="52"><style/><g id="our team"><g id="1"><g id="share"><path id="instagram" fill-rule="evenodd" d="M45.4 51.6H7c-3.54 0-6.4-2.86-6.4-6.4V6.8C.6 3.26 3.46.4 7 .4h38.4c3.54 0 6.4 2.86 6.4 6.4v38.4c0 3.54-2.86 6.4-6.4 6.4zM26.2 16.08c-4 0-7.42 2.36-9 5.76-.02.04-.04.08-.04.1-.1.22-.18.44-.26.66l-.12.3c-.08.22-.14.46-.2.68-.02.1-.06.22-.08.32-.04.24-.08.48-.12.74 0 .1-.04.2-.04.3-.04.34-.06.7-.06 1.06 0 5.48 4.44 9.92 9.92 9.92 5.48 0 9.92-4.44 9.92-9.92 0-.36-.02-.72-.06-1.06 0-.1-.04-.2-.04-.3-.04-.26-.08-.5-.12-.74-.04-.1-.06-.22-.08-.32-.06-.22-.12-.46-.2-.68l-.12-.3c-.08-.22-.16-.44-.26-.66 0-.02-.02-.06-.04-.1-1.58-3.4-5-5.76-9-5.76zm19.84-7.36c0-1.42-1.14-2.56-2.56-2.56h-5.12c-1.42 0-2.56 1.14-2.56 2.56v5.12c0 1.42 1.14 2.56 2.56 2.56h5.12c1.42 0 2.56-1.14 2.56-2.56V8.72zm0 13.12h-4.72c.36 1.32.56 2.72.56 4.16 0 8.66-7.02 15.68-15.68 15.68S10.52 34.66 10.52 26c0-1.44.2-2.84.56-4.16H6.36v21.44c0 1.42 1.14 2.56 2.56 2.56h34.56c1.42 0 2.56-1.14 2.56-2.56V21.84z" fill="#f38181"/></g></g></g></svg>