<svg xmlns="http://www.w3.org/2000/svg" width="42" height="52"><style/><g id="our team"><g id="1"><g id="share"><path id="pinterest" d="M18.1 33.7c-.42 1.68-.84 3.42-1.28 5.12-.42 1.7-.8 3.4-1.42 4.94-1.04 2.58-2.36 5.04-4.1 7.06-1.14 1.32-.9.8-1.24.72-.28-.06-.3-.32-.34-.68-.28-2.04-.1-4.4 0-6.68.12-2.62.68-4.78 1.18-6.96.98-4.12 1.9-8.16 2.88-12.32.06-.28.24-.74.18-.88-.44-1.16-.74-2.2-.86-3.4-.14-1.4-.04-2.7.28-3.9.54-2.12 1.82-3.98 3.78-4.68 1.26-.42 2.64-.22 3.48.28.86.5 1.46 1.32 1.72 2.48.3 1.24.08 2.7-.16 3.78-.52 2.44-1.22 4.28-1.86 6.62-.32 1.18-.68 2.38-.38 3.62.26 1.16.86 1.96 1.7 2.56.84.62 1.84.96 3.24.92 2.46-.1 4.16-1.66 5.3-3.14 1.82-2.38 2.94-5.58 3.36-9.38.12-1.22.22-2.64.14-4.02-.18-2.58-.98-4.64-2.26-6.24C30.22 8 28.5 6.78 26.42 6.1c-2.08-.68-4.96-.9-7.5-.46-4.64.78-7.9 3.42-9.82 7.06-1.02 1.9-1.68 4.1-1.68 6.82 0 2.1.52 3.72 1.36 5 .26.4.64.74.9 1.2.38.64-.04 1.62-.24 2.32-.22.86-.24 2.02-1.22 2.04-.42.02-.94-.28-1.28-.48-2.62-1.44-4.2-4.06-4.84-7.48-.4-2.06-.4-4.46 0-6.46.38-1.94 1.08-3.72 1.86-5.16 1.64-3.02 4.02-5.42 6.92-7.14 2.24-1.32 4.76-2.24 7.82-2.68 1.02-.16 2.06-.22 3.2-.26 3.34-.16 6.38.58 8.66 1.6 2.42 1.08 4.34 2.52 5.96 4.3 1.68 1.84 2.9 3.96 3.68 6.62.4 1.38.78 2.86.78 4.58 0 1.7-.36 3.22-.6 4.74-.96 5.64-3.64 10.28-7.68 12.9-.98.64-2.16 1.24-3.52 1.62-1.32.4-2.84.68-4.48.58-1.58-.12-2.88-.54-3.96-1.16-1.08-.62-2-1.36-2.64-2.5z" fill="#f38181"/></g></g></g></svg>