<svg xmlns="http://www.w3.org/2000/svg" width="52" height="44"><style/><g id="our team"><g id="1"><g id="share"><path id="twitter" d="M35.02 1.2c4.08-.08 6.24 1.42 8.3 3.3 1.76-.16 4.04-1.14 5.38-1.82l1.32-.72c-.78 2.08-1.82 3.7-3.42 4.94-.34.28-.7.64-1.14.82v.02c2.28-.02 4.16-1.04 5.94-1.6v.02c-.94 1.48-2.2 3-3.56 4.08-.54.44-1.1.88-1.64 1.3.02 2.42-.04 4.72-.48 6.76-2.64 11.78-9.58 19.78-20.58 23.22-3.96 1.22-10.34 1.74-14.86.62-2.26-.56-4.28-1.2-6.18-2.02-1.06-.46-2.04-.98-2.98-1.54-.3-.18-.62-.38-.92-.56 1.02.02 2.22.3 3.36.12 1.02-.16 2.04-.12 3-.32 2.38-.52 4.48-1.22 6.3-2.28.88-.52 2.22-1.12 2.84-1.86-1.18.02-2.24-.26-3.12-.56-3.4-1.2-5.38-3.42-6.66-6.72 1.02.1 4 .38 4.68-.22-1.3-.06-2.54-.82-3.42-1.38-2.74-1.7-4.98-4.56-4.96-8.98.36.16.72.34 1.08.5.68.3 1.38.46 2.2.62.36.08 1.04.28 1.44.12h-.06c-.52-.6-1.38-1.02-1.92-1.68-1.74-2.18-3.4-5.54-2.36-9.52.28-1.02.7-1.92 1.14-2.74.02 0 .04.02.04.02.22.44.66.74.96 1.1.9 1.12 2 2.12 3.12 3 3.84 3 7.3 4.84 12.84 6.2 1.4.34 3.04.62 4.72.62-.48-1.38-.32-3.6.04-4.94.94-3.34 2.98-5.76 5.96-7.04.7-.32 1.5-.54 2.32-.72.44-.06.86-.1 1.28-.16z" fill="#f38181"/></g></g></g></svg>